ply
format ascii 1.1
comment Created by Blender 2.71 (sub 0) - www.blender.org, source file: 'projectiveInsignia1.blend'
element vertex 51
property float x
property float y
property float z
element face 0
element edge 26
property list uchar uint vertex_indices
end_header
0.355757 0.103261 0.000000
0.517126 0.271740 0.000000
0.238078 0.271740 0.000000
0.238078 0.240615 0.000000
0.455046 0.240615 0.000000
0.412440 0.181114 0.000000
0.238076 0.181114 0.000000
0.238076 0.149988 0.000000
-0.527927 0.273298 0.000000
-0.391551 0.086260 0.000000
-0.248879 0.273298 0.000000
-0.527927 0.273298 0.000000
-0.465850 0.242172 0.000000
-0.248879 0.242172 0.000000
-0.248879 0.182672 0.000000
-0.423244 0.182672 0.000000
-0.400461 0.151546 0.000000
-0.248879 0.151546 0.000000
-0.366559 0.104819 0.000000
-0.326988 0.050278 0.000000
-0.352112 0.031895 0.000000
0.343454 0.030744 0.000000
-0.000904 -0.452805 0.000000
0.389659 0.149988 0.000000
0.380749 0.084703 0.000000
-0.248879 0.273298 0.000000
-0.248879 0.242172 0.000000
-0.465850 0.242172 0.000000
-0.423244 0.182672 0.000000
-0.248879 0.182672 0.000000
-0.248879 0.151546 0.000000
-0.400461 0.151546 0.000000
-0.366559 0.104819 0.000000
0.355757 0.103261 0.000000
0.389659 0.149988 0.000000
0.238076 0.149988 0.000000
0.238076 0.181114 0.000000
0.412440 0.181114 0.000000
0.455046 0.240615 0.000000
0.238078 0.240615 0.000000
0.238078 0.271740 0.000000
0.380749 0.084703 0.000000
-0.000904 -0.452805 0.000000
-0.352112 0.031895 0.000000
-0.391551 0.086260 0.000000
-0.001130 -0.398341 0.000000
0.320336 0.051582 0.000000
-0.326988 0.050278 0.000000
-0.001130 -0.398341 0.000000
0.320336 0.051582 0.000000
0.343454 0.030744 0.000000
2 29 30
2 20 19
2 27 28
2 11 10
2 15 14
2 33 34
2 35 36
2 24 1
2 2 1
2 6 5
2 23 7
2 22 21
2 9 8
2 39 40
2 4 3
2 25 26
2 13 12
2 17 16
2 31 32
2 45 46
2 42 43
2 37 38
2 44 18
2 41 0
2 47 48
2 49 50
